<?xml version="1.0" encoding="utf-8"?>
<svg xmlns="http://www.w3.org/2000/svg" viewBox="0 0 425.2 56.13" width="200" height="28"><defs><style>.cls-1{fill:#fff;}.cls-2{fill:#ff2e4f;}</style></defs><title>Asset 1</title><g id="Layer_2" data-name="Layer 2"><g id="Layer_1-2" data-name="Layer 1"><path class="cls-1" d="M14.81,26H8.53V45.8H0V0H8.53V19.05h6.21L29.55,0h10L22.25,22.48,41,45.8h-10Z"/><path class="cls-1" d="M47.37,36.69V18.22c0-6.72,3.48-9.82,10.92-9.82H71.8c7.37,0,10.85,3.1,10.85,9.82V36.69c0,6.65-3.48,9.75-10.85,9.75H58.29C50.85,46.44,47.37,43.34,47.37,36.69Zm21.7,3.55c3.89,0,5.46-1.36,5.46-4.84v-16c0-3.42-1.57-4.84-5.46-4.84H61c-3.89,0-5.39,1.42-5.39,4.84v16c0,3.48,1.5,4.84,5.39,4.84Z"/><path class="cls-1" d="M138.55,39.6V56.13h-8.12V45.8H99V56.13H90.91V39.6h6c3.2-6.46,3.61-9.11,5.25-22.74L103.06,9h29V39.6ZM110.09,18.09c-1.3,11.75-2,15.37-4.3,21.51h18.15V15.24H110.43Z"/><path class="cls-2" d="M186.73,0V45.8H178.2V13.24L156.5,45.8H148V0h8.53V32.68L178.27,0Z"/><path class="cls-2" d="M234.85,9V45.8h-8.12V30.1H208.44V45.8h-8.19V9h8.19V23.9h18.29V9Z"/><path class="cls-2" d="M292.32,39.6V56.13H284.2V45.8H252.8V56.13h-8.12V39.6h6c3.2-6.46,3.61-9.11,5.25-22.74L256.83,9h29V39.6ZM263.86,18.09c-1.3,11.75-2,15.37-4.3,21.51h18.15V15.24H264.2Z"/><path class="cls-2" d="M308.84,29.71v5.75c0,3.42,1.57,4.78,5.46,4.78h7.64c3.82,0,5.46-1.36,5.46-4.78v-.39l8.05.71a2.51,2.51,0,0,1,.07.84c0,6.72-3.48,9.82-10.92,9.82h-13c-7.37,0-10.86-3.1-10.86-9.82V18.22c0-6.66,3.49-9.82,10.86-9.82h13c7.44,0,10.92,3.16,10.92,9.82V29.71Zm0-10.27v4.07H327.4V19.44c0-3.49-1.57-4.84-5.46-4.84H314.3C310.41,14.6,308.84,16,308.84,19.44Z"/><path class="cls-2" d="M360.71,29.78H356v16h-8.19V9H356V23.58h4.64L372.51,9h9.9L368.15,26.61,383.36,45.8h-9.82Z"/><path class="cls-2" d="M390.74,36.69V18.22c0-6.72,3.48-9.82,10.92-9.82h12.62c7.37,0,10.92,3.1,10.92,9.82a3,3,0,0,1-.06.83l-8.13.72v-.39c0-3.43-1.57-4.78-5.46-4.78h-7.23c-3.89,0-5.39,1.42-5.39,4.84v16c0,3.48,1.5,4.84,5.39,4.84h7.23c3.89,0,5.46-1.36,5.46-4.71v-.46l8.13.71a4.07,4.07,0,0,1,.06.91c0,6.65-3.55,9.75-10.92,9.75H401.66C394.22,46.44,390.74,43.34,390.74,36.69Z"/></g></g></svg>
